<svg xmlns="http://www.w3.org/2000/svg" width="320" height="256" viewBox="-10 -14 666 533" role="img" aria-label="K — Krupal Tandel">
  <defs><linearGradient id="kg" x1="0" y1="0" x2="1" y2="0"><stop offset="16%" stop-color="#0d1216"></stop><stop offset="70%" stop-color="#1e5fd6"></stop></linearGradient></defs>
  <g transform="translate(0,516.113)"><path fill="url(#kg)" d="M479.980-461.914L479.980-461.914Q479.980-442.871 467.529-426.270Q455.078-409.668 436.279-394.043Q417.480-378.418 395.508-363.770Q373.535-349.121 354.736-333.984Q335.938-318.848 323.486-303.223Q311.035-287.598 311.035-270.020L311.035-270.020Q311.035-255.371 331.543-241.699Q352.051-228.027 390.625-214.355Q429.199-200.684 483.887-186.279Q538.574-171.875 606.934-155.762L606.934-155.762Q641.113-146.484 641.113-121.094L641.113-121.094Q641.113-111.328 636.475-102.051Q631.836-92.773 624.023-85.693Q616.211-78.613 606.201-74.219Q596.191-69.824 585.938-69.824L585.938-69.824Q561.523-69.824 530.518-77.148Q499.512-84.473 466.309-95.215Q433.105-105.957 399.902-118.896Q366.699-131.836 337.646-142.578Q308.594-153.320 286.377-160.645Q264.160-167.969 252.930-167.969L252.930-167.969Q244.141-167.969 236.084-159.912Q228.027-151.855 221.436-137.695Q214.844-123.535 210.449-104.248Q206.055-84.961 204.102-62.012L204.102-62.012Q201.660-36.133 185.791-23.682Q169.922-11.230 142.090-11.230L142.090-11.230Q113.281-11.230 108.887-38.086L108.887-38.086Q101.563-79.102 91.064-121.582Q80.566-164.063 68.115-206.543Q55.664-249.023 41.260-290.527Q26.855-332.031 11.230-370.117L11.230-370.117Q7.324-378.418 5.615-385.498Q3.906-392.578 3.906-399.902L3.906-399.902Q3.906-406.250 7.813-411.865Q11.719-417.480 18.555-421.875Q25.391-426.270 34.424-428.711Q43.457-431.152 53.223-431.152L53.223-431.152Q73.242-431.152 84.961-422.852Q96.680-414.551 108.887-397.949L108.887-397.949Q114.746-390.137 120.117-377.197Q125.488-364.258 130.371-349.609Q135.254-334.961 140.137-320.068Q145.020-305.176 149.658-293.213Q154.297-281.250 158.936-273.682Q163.574-266.113 167.969-266.113L167.969-266.113Q171.875-266.113 174.561-269.531Q177.246-272.949 181.152-279.785L181.152-279.785Q206.543-332.520 236.816-376.221Q267.090-419.922 298.828-450.928Q330.566-481.934 362.549-499.023Q394.531-516.113 423.828-516.113L423.828-516.113Q435.547-516.113 445.801-511.963Q456.055-507.813 463.623-500.488Q471.191-493.164 475.586-483.154Q479.980-473.145 479.980-461.914Z"></path></g>
</svg>